<svg>
<svg id="home_icon" xmlns="http://www.w3.org/2000/svg"  viewBox="0 0 24 24"><path fill="currentColor" d="m21.743 12.331l-9-10c-.379-.422-1.107-.422-1.486 0l-9 10a1 1 0 0 0-.17 1.076c.16.361.518.593.913.593h2v7a1 1 0 0 0 1 1h3a1 1 0 0 0 1-1v-4h4v4a1 1 0 0 0 1 1h3a1 1 0 0 0 1-1v-7h2a.998.998 0 0 0 .743-1.669"/></svg>
<symbol id="cart_icon" xmlns="http://www.w3.org/2000/svg"  viewBox="0 0 56 56"><path fill="currentColor" d="M.953 6.719c0 .96.797 1.781 1.735 1.781h7.921l3.75 25.734c.493 3.328 2.25 5.414 5.649 5.414H47.36c.913 0 1.71-.75 1.71-1.757c0-1.008-.797-1.758-1.71-1.758H20.406c-1.336 0-2.156-.938-2.367-2.367l-.375-2.461h29.742c3.422 0 5.18-2.11 5.672-5.461l1.875-12.399a7 7 0 0 0 .094-.89c0-1.125-.844-1.899-2.133-1.899h-38.25l-.469-2.976c-.234-1.805-.89-2.72-3.28-2.72H2.687c-.937 0-1.734.822-1.734 1.76M18.04 47.242c0 2.133 1.688 3.797 3.82 3.797a3.766 3.766 0 0 0 3.797-3.797a3.78 3.78 0 0 0-3.797-3.797c-2.132 0-3.82 1.688-3.82 3.797m21.914 0c0 2.133 1.711 3.797 3.82 3.797c2.133 0 3.82-1.664 3.82-3.797c0-2.11-1.687-3.797-3.82-3.797c-2.109 0-3.82 1.688-3.82 3.797"/></symbol>
<svg id="favorite_icon" xmlns="http://www.w3.org/2000/svg" viewBox="0 0 24 24"><path fill="currentColor" d="M11.98 19.094q-.291 0-.577-.106q-.286-.105-.503-.323L9.752 17.63q-2.67-2.425-4.71-4.717Q3 10.622 3 8.15q0-1.908 1.296-3.204T7.5 3.65q1.094 0 2.279.553T12 6.289q1.037-1.533 2.221-2.086T16.5 3.65q1.908 0 3.204 1.296T21 8.15q0 2.529-2.125 4.862t-4.652 4.622l-1.142 1.031q-.218.218-.513.323t-.587.106"/></svg>
<symbol id="profile_icon" xmlns="http://www.w3.org/2000/svg" width="2em" height="2em" viewBox="0 0 24 24"><path fill="currentColor" d="M19.652 19.405c.552-.115.882-.693.607-1.187c-.606-1.087-1.56-2.043-2.78-2.771C15.907 14.509 13.98 14 12 14s-3.907.508-5.479 1.447c-1.22.728-2.174 1.684-2.78 2.771c-.275.494.055 1.072.607 1.187a37.5 37.5 0 0 0 15.303 0"/><circle cx="12" cy="8" r="5" fill="currentColor"/></symbol>
</svg>