<svg>
<svg id="home_icon" xmlns="http://www.w3.org/2000/svg"  viewBox="0 0 24 24"><path fill="currentColor" d="m21.743 12.331l-9-10c-.379-.422-1.107-.422-1.486 0l-9 10a1 1 0 0 0-.17 1.076c.16.361.518.593.913.593h2v7a1 1 0 0 0 1 1h3a1 1 0 0 0 1-1v-4h4v4a1 1 0 0 0 1 1h3a1 1 0 0 0 1-1v-7h2a.998.998 0 0 0 .743-1.669"/></svg>
<symbol id="cart_icon" xmlns="http://www.w3.org/2000/svg"  viewBox="0 0 56 56"><path fill="currentColor" d="M.953 6.719c0 .96.797 1.781 1.735 1.781h7.921l3.75 25.734c.493 3.328 2.25 5.414 5.649 5.414H47.36c.913 0 1.71-.75 1.71-1.757c0-1.008-.797-1.758-1.71-1.758H20.406c-1.336 0-2.156-.938-2.367-2.367l-.375-2.461h29.742c3.422 0 5.18-2.11 5.672-5.461l1.875-12.399a7 7 0 0 0 .094-.89c0-1.125-.844-1.899-2.133-1.899h-38.25l-.469-2.976c-.234-1.805-.89-2.72-3.28-2.72H2.687c-.937 0-1.734.822-1.734 1.76M18.04 47.242c0 2.133 1.688 3.797 3.82 3.797a3.766 3.766 0 0 0 3.797-3.797a3.78 3.78 0 0 0-3.797-3.797c-2.132 0-3.82 1.688-3.82 3.797m21.914 0c0 2.133 1.711 3.797 3.82 3.797c2.133 0 3.82-1.664 3.82-3.797c0-2.11-1.687-3.797-3.82-3.797c-2.109 0-3.82 1.688-3.82 3.797"/></symbol>
<symbol id="favorite_icon" xmlns="http://www.w3.org/2000/svg" viewBox="0 0 24 24"><g fill="currentColor"><path fill="currentColor" fill-opacity="0.16" d="M16.696 3C14.652 3 12.887 4.197 12 5.943C11.113 4.197 9.348 3 7.304 3C4.374 3 2 5.457 2 8.481s1.817 5.796 4.165 8.073S12 21 12 21s3.374-2.133 5.835-4.446C20.46 14.088 22 11.514 22 8.481S19.626 3 16.696 3"/><path stroke="currentColor" stroke-linecap="round" stroke-linejoin="round" stroke-width="1.5" d="M16.696 3C14.652 3 12.887 4.197 12 5.943C11.113 4.197 9.348 3 7.304 3C4.374 3 2 5.457 2 8.481s1.817 5.796 4.165 8.073S12 21 12 21s3.374-2.133 5.835-4.446C20.46 14.088 22 11.514 22 8.481S19.626 3 16.696 3"/></g></symbol>
<symbol id="profile_icon" xmlns="http://www.w3.org/2000/svg" viewBox="0 0 24 24"><path fill="currentColor" d="M19.652 19.405c.552-.115.882-.693.607-1.187c-.606-1.087-1.56-2.043-2.78-2.771C15.907 14.509 13.98 14 12 14s-3.907.508-5.479 1.447c-1.22.728-2.174 1.684-2.78 2.771c-.275.494.055 1.072.607 1.187a37.5 37.5 0 0 0 15.303 0"/><circle cx="12" cy="8" r="5" fill="currentColor"/></symbol>

<symbol id="app_icon"  viewBox="0 0 34 32" fill="none" xmlns="http://www.w3.org/2000/svg">
<path d="M15.0697 12.518C14.2561 12.5756 13.4406 12.6157 12.63 12.694C11.2111 12.8309 9.80104 13.0372 8.4565 13.5359C8.04996 13.6881 7.66321 13.8887 7.3046 14.1334C6.84696 14.4453 6.80785 14.8423 7.15303 15.2804C7.31872 15.4675 7.49782 15.6424 7.68889 15.8035C7.71529 15.5297 7.66542 15.2354 7.78667 15.0418C7.91868 14.8247 8.17781 14.6594 8.42228 14.5382C9.41968 14.0346 10.507 13.8292 11.6003 13.665C14.2824 13.2703 17.0034 13.2128 19.6998 13.4938C20.8879 13.6141 22.0652 13.8674 23.2357 14.1177C23.9094 14.2615 24.5519 14.5313 25.0838 15.1092C25.1313 14.9749 25.1445 14.8308 25.1221 14.6901C25.0997 14.5494 25.0425 14.4165 24.9557 14.3035C24.6144 13.8077 24.1285 13.487 23.6033 13.2191C23.4994 13.1782 23.408 13.1108 23.3384 13.0235C23.4479 13.046 23.5574 13.0665 23.6659 13.0919C24.2802 13.2281 24.8553 13.5023 25.3478 13.8938C25.5376 14.0465 25.7063 14.2238 25.8495 14.4208C26.2269 14.9489 26.1849 15.5346 25.6637 15.9169C25.2374 16.2301 24.7654 16.4758 24.2644 16.6454C22.5962 17.1989 20.8693 17.4913 19.1248 17.6771C17.2754 17.8809 15.412 17.9254 13.555 17.8101C11.5015 17.6751 9.48226 17.3495 7.55688 16.5985C7.12071 16.4313 6.71503 16.1934 6.35608 15.8945C5.67746 15.3146 5.7508 14.4912 6.48418 13.9896C7.33393 13.4097 8.31178 13.1526 9.2994 12.9306C11.1559 12.5134 13.0613 12.3554 14.9611 12.4612C14.9999 12.4651 15.0384 12.471 15.0765 12.4788L15.0697 12.518ZM9.38741 15.7204L9.51355 15.6656C9.37861 15.209 9.6348 14.9411 9.97803 14.7856C10.4668 14.5584 10.9763 14.379 11.4996 14.2497C12.2486 14.0796 13.0172 13.9906 13.777 13.8674C13.6811 13.8435 13.582 13.8356 13.4836 13.8439C12.7453 13.9094 11.9983 13.927 11.2727 14.061C10.6244 14.1803 9.99367 14.413 9.36883 14.633C9.15762 14.7074 8.92293 14.8971 9.00116 15.1611C9.0569 15.3703 9.25051 15.5366 9.38741 15.7204Z" fill="#9C4400"/>
<path d="M26.1006 18.6755C26.0468 19.0774 26.0028 19.4177 25.949 19.7932C26 19.7767 26.0492 19.7551 26.0957 19.7286C26.9435 19.0226 27.6084 18.1836 27.9839 17.1344C28.0113 17.0541 28.0319 16.9717 28.0455 16.888C28.1296 16.4401 28.0143 16.1272 27.7121 15.9747C27.5299 15.8829 27.3218 15.8564 27.1225 15.8997C26.9231 15.9429 26.7447 16.0533 26.6169 16.2123C26.5064 16.3443 26.4321 16.5056 26.2991 16.6425L26.8565 15.0565C27.3067 15.0248 27.7573 15.1136 28.1619 15.3136C28.6929 15.5962 28.9256 16.1702 28.6772 16.8274C28.4212 17.4773 28.1183 18.1077 27.7708 18.7136C27.5028 19.1937 27.1401 19.6201 26.8516 20.0894C26.4116 20.8033 26.4761 21.1269 27.1127 21.6804C27.1336 21.7026 27.1523 21.7269 27.1684 21.7528C26.5915 22.1439 26.0859 22.0549 25.4728 21.435C24.3503 24.2414 22.2459 25.9164 19.418 26.7965C19.6136 26.7554 19.8179 26.7173 20.0174 26.6743C20.2169 26.6312 20.4017 26.5902 20.5934 26.5481L20.6325 26.6185C20.3734 26.7936 20.1328 27.0097 19.8502 27.1358C17.5601 28.1332 15.2406 28.1674 12.9134 27.2747C12.4789 27.1169 12.1096 26.8185 11.8641 26.4269C11.8095 26.35 11.7337 26.2906 11.6461 26.2558C8.97264 25.0677 7.40026 22.9526 6.56811 20.2205C6.18129 18.907 5.97825 17.5463 5.96478 16.1771C7.7914 17.6439 10.0052 17.9118 12.2005 18.165C13.5568 18.3215 14.9326 18.3039 16.3006 18.3606C16.3417 18.3606 16.3828 18.3704 16.4229 18.3743L16.4307 18.4584C15.668 18.5317 14.9072 18.6393 14.1435 18.6706C12.2504 18.7459 10.3641 18.6706 8.49545 18.3264C8.26526 18.2871 8.03141 18.2737 7.79825 18.2863C7.53912 18.2961 7.38853 18.4545 7.38168 18.7175C7.37264 18.8977 7.38281 19.0783 7.412 19.2563C8.03586 22.5693 9.92017 24.8125 13.1246 25.8998C13.8003 26.1296 14.5141 26.247 15.2103 26.4161L15.2514 26.3183C15.2216 26.2735 15.1868 26.2321 15.1477 26.1951C13.7735 25.1521 12.9847 23.7743 12.7814 22.0618C12.7071 21.4899 12.7843 20.9086 13.0053 20.376C13.4033 19.4333 14.2833 18.9815 15.2856 19.2025C16.3613 19.4402 17.1435 20.1051 17.7703 20.9715C18.6054 22.138 19.0894 23.4239 18.8626 24.8829C18.801 25.2789 18.6181 25.6563 18.492 26.0416L18.3834 26.024C18.3564 25.9752 18.3354 25.9233 18.3209 25.8695C18.2005 25.1087 17.8356 24.4077 17.2814 23.8727C16.771 23.3643 16.2204 22.8949 15.6807 22.4157C14.9355 21.7537 14.3479 20.991 14.1161 19.9985C14.0951 19.9576 14.0695 19.9192 14.0398 19.8841C13.9756 20.3237 14.0234 20.7723 14.1787 21.1885C14.4359 21.9346 14.9453 22.5018 15.4988 23.0367C15.9036 23.4278 16.3202 23.8072 16.7113 24.2101C17.2335 24.7489 17.6051 25.3708 17.6579 26.1413C17.6706 26.3125 17.7508 26.3565 17.9092 26.331C21.2505 25.7883 23.8164 24.1534 25.2841 21.0262C25.6273 20.2997 25.8151 19.5027 26.1006 18.6755ZM15.1673 19.3825C17.2618 20.4757 18.3473 22.2104 18.4861 24.5572C18.9525 22.2436 17.0536 19.8186 15.1673 19.3825ZM17.2628 25.9262C17.4242 25.318 16.7944 24.3089 16.062 23.993L17.2628 25.9262Z" fill="#9C4400"/>
<path d="M19.6987 29.777C20.4761 29.6977 21.2574 29.6381 22.0319 29.5315C22.8063 29.4249 23.5759 29.2704 24.3728 29.1942C24.0717 29.3311 23.7773 29.4875 23.4683 29.6029C22.2949 30.0439 21.0716 30.2512 19.8337 30.3783C17.1055 30.659 14.3831 30.6423 11.6823 30.1094C10.7524 29.9266 9.83909 29.685 9.06268 29.0925C8.96001 29.0133 8.80746 28.9947 8.67154 28.9575C7.76117 28.6984 6.85666 28.4168 6.07145 27.8682C5.79268 27.676 5.54474 27.4426 5.33611 27.1759C5.01831 26.7593 5.02026 26.2802 5.36544 25.8861C5.66564 25.5439 6.04309 25.2701 6.38632 24.9659L6.44694 25.0315C6.44694 25.0461 6.44694 25.0667 6.43814 25.0755C5.73214 25.7463 5.74778 26.3467 6.51148 26.9666C7.15979 27.4888 7.93327 27.7636 8.7175 28.0002C10.8189 28.6329 12.9819 28.848 15.1635 28.9067C17.8692 28.978 20.5592 28.8284 23.1818 28.1156C23.9132 27.92 24.6173 27.6042 25.3135 27.2981C25.5994 27.1577 25.8567 26.9654 26.0723 26.731C26.5251 26.2714 26.5163 25.7336 26.088 25.2554C26.0143 25.1935 25.9507 25.1206 25.8992 25.0393C26.4488 25.3111 26.9661 25.6201 27.1929 26.2371C27.2613 26.4011 27.2792 26.5817 27.2444 26.7559C27.2096 26.9301 27.1236 27.09 26.9974 27.215C26.6199 27.5768 26.2151 27.9347 25.7535 28.1782C24.4941 28.848 23.1134 29.1462 21.7141 29.3829C21.0364 29.4973 20.3539 29.5784 19.6733 29.6762L19.6987 29.777Z" fill="#9C4400"/>
<path d="M17.6277 20.2302C18.2251 19.7686 18.8793 19.4665 19.6508 19.7109C20.482 19.975 20.7978 20.6731 20.8712 21.4544C21.0306 23.1754 20.4175 24.6099 19.1257 25.757C19.0933 25.7849 19.0551 25.8052 19.0138 25.8164C18.9725 25.8276 18.9292 25.8293 18.8871 25.8215C19.0035 25.6162 19.0944 25.3912 19.2401 25.2103C20.0527 24.2032 20.57 23.0953 20.4712 21.7654C20.4657 21.6585 20.4398 21.5536 20.395 21.4564C20.3592 22.5796 19.9702 23.6629 19.2832 24.5523C19.2255 24.076 19.1746 23.6311 19.1169 23.1882C19.109 23.082 19.0836 22.9779 19.0416 22.8801C18.6094 22.0147 19.0827 21.3635 19.5511 20.7132C19.6489 20.5783 19.777 20.4658 19.8747 20.3221C19.2558 20.5323 18.8793 21.0066 18.5674 21.5679L17.6277 20.2302Z" fill="#9C4400"/>
<path d="M14.8729 4.20529C15.6738 4.45269 16.4238 4.792 16.988 5.42662C17.7644 6.30668 17.6383 7.38232 16.6683 8.1421C16.2009 8.50684 15.707 8.83931 15.2308 9.19231C15.1041 9.28885 14.9863 9.39651 14.8788 9.51402C14.4603 9.95992 14.3723 10.4361 14.739 10.9251C15.1184 11.4296 15.5907 11.8638 16.0239 12.3273C16.0806 12.3869 16.1461 12.4378 16.2409 12.5229C15.5369 12.3068 14.0633 11.191 13.7142 10.6297C13.3651 10.0685 13.3729 9.51794 13.8511 9.03195C14.2804 8.59583 14.7849 8.235 15.2475 7.83115C15.5685 7.57224 15.8695 7.28949 16.1481 6.98531C16.5842 6.46998 16.6076 5.94977 16.1833 5.42075C15.8752 5.03744 15.4753 4.72746 15.1135 4.38815C15.0371 4.32233 14.9568 4.26126 14.8729 4.20529Z" fill="#9C4400"/>
<path d="M17.5338 9.52375C17.8907 9.10523 18.2339 8.75614 18.5116 8.36207C19.0367 7.62086 19.068 6.81903 18.5547 6.07293C18.143 5.47351 17.6316 4.94254 17.17 4.37636C16.9618 4.13636 16.77 3.88251 16.596 3.61658C16.1257 2.84506 16.2704 2.09505 17.0067 1.479C16.8112 2.78834 17.6247 3.63027 18.3415 4.5162C18.6544 4.90733 18.9859 5.27989 19.2636 5.68961C19.9227 6.66746 19.8396 7.50548 19.0231 8.35914C18.8231 8.56403 18.608 8.75361 18.3796 8.92629C18.1225 9.1287 17.8457 9.30276 17.5338 9.52375Z" fill="#9C4400"/>
<path d="M9.38744 15.7204C9.25249 15.5365 9.05888 15.3703 8.9963 15.165C8.91807 14.9009 9.15275 14.7112 9.36397 14.6369C9.98881 14.4169 10.6195 14.1842 11.2678 14.0649C11.9934 13.9309 12.7405 13.9133 13.4787 13.8478C13.5772 13.8394 13.6763 13.8474 13.7721 13.8713C13.0123 13.9945 12.2437 14.0835 11.4947 14.2536C10.9718 14.3829 10.4626 14.5623 9.97414 14.7895C9.63092 14.941 9.37472 15.209 9.50967 15.6695L9.38744 15.7204Z" fill="white"/>
<path d="M15.1674 19.3824C17.0537 19.8186 18.9526 22.2436 18.4862 24.5562C18.3473 22.2104 17.2619 20.4757 15.1674 19.3824Z" fill="white"/>
<path d="M17.2628 25.9262L16.062 23.993C16.7944 24.3049 17.4242 25.3141 17.2628 25.9262Z" fill="white"/>
</symbol>
<symbol id="login_icon" xmlns="http://www.w3.org/2000/svg"  viewBox="0 0 24 24"><path fill="currentColor" d="M14.945 1.25c-1.367 0-2.47 0-3.337.117c-.9.12-1.658.38-2.26.981c-.524.525-.79 1.17-.929 1.928c-.135.737-.161 1.638-.167 2.72a.75.75 0 0 0 1.5.008c.006-1.093.034-1.868.142-2.457c.105-.566.272-.895.515-1.138c.277-.277.666-.457 1.4-.556c.755-.101 1.756-.103 3.191-.103h1c1.436 0 2.437.002 3.192.103c.734.099 1.122.28 1.4.556c.276.277.456.665.555 1.4c.102.754.103 1.756.103 3.191v8c0 1.435-.001 2.436-.103 3.192c-.099.734-.279 1.122-.556 1.399s-.665.457-1.399.556c-.755.101-1.756.103-3.192.103h-1c-1.435 0-2.436-.002-3.192-.103c-.733-.099-1.122-.28-1.399-.556c-.243-.244-.41-.572-.515-1.138c-.108-.589-.136-1.364-.142-2.457a.75.75 0 1 0-1.5.008c.006 1.082.032 1.983.167 2.72c.14.758.405 1.403.93 1.928c.601.602 1.36.86 2.26.982c.866.116 1.969.116 3.336.116h1.11c1.368 0 2.47 0 3.337-.116c.9-.122 1.658-.38 2.26-.982s.86-1.36.982-2.26c.116-.867.116-1.97.116-3.337v-8.11c0-1.367 0-2.47-.116-3.337c-.121-.9-.38-1.658-.982-2.26s-1.36-.86-2.26-.981c-.867-.117-1.97-.117-3.337-.117z"/><path fill="currentColor" d="M2.001 11.249a.75.75 0 0 0 0 1.5h11.973l-1.961 1.68a.75.75 0 1 0 .976 1.14l3.5-3a.75.75 0 0 0 0-1.14l-3.5-3a.75.75 0 0 0-.976 1.14l1.96 1.68z"/></symbol>
<symbol id="close_icon" xmlns="http://www.w3.org/2000/svg"  viewBox="0 0 24 24"><path fill="currentColor" d="M20.48 3.512a11.97 11.97 0 0 0-8.486-3.514C5.366-.002-.007 5.371-.007 11.999c0 3.314 1.344 6.315 3.516 8.487A11.97 11.97 0 0 0 11.995 24c6.628 0 12.001-5.373 12.001-12.001c0-3.314-1.344-6.315-3.516-8.487m-1.542 15.427a9.8 9.8 0 0 1-6.943 2.876c-5.423 0-9.819-4.396-9.819-9.819a9.8 9.8 0 0 1 2.876-6.943a9.8 9.8 0 0 1 6.942-2.876c5.422 0 9.818 4.396 9.818 9.818a9.8 9.8 0 0 1-2.876 6.942z"/><path fill="currentColor" d="m13.537 12l3.855-3.855a1.091 1.091 0 0 0-1.542-1.541l.001-.001l-3.855 3.855l-3.855-3.855A1.091 1.091 0 0 0 6.6 8.145l-.001-.001l3.855 3.855l-3.855 3.855a1.091 1.091 0 1 0 1.541 1.542l.001-.001l3.855-3.855l3.855 3.855a1.091 1.091 0 1 0 1.542-1.541l-.001-.001z"/></symbol>
<symbol id="back_icon" xmlns="http://www.w3.org/2000/svg"  viewBox="0 0 24 24"><g fill="none" stroke="currentColor" stroke-linecap="round" stroke-linejoin="round" stroke-width="1.5"><path d="m8 5l-5 5l5 5"/><path d="M3 10h8c5.523 0 10 4.477 10 10v1"/></g></symbol>
<symbol id="logout_icon" xmlns="http://www.w3.org/2000/svg"  viewBox="0 0 24 24">
	<g fill="none" stroke="currentColor" stroke-linecap="round" stroke-width="1.5">
		<path d="M9.002 7c.012-2.175.109-3.353.877-4.121C10.758 2 12.172 2 15 2h1c2.829 0 4.243 0 5.122.879C22 3.757 22 5.172 22 8v8c0 2.828 0 4.243-.878 5.121C20.242 22 18.829 22 16 22h-1c-2.828 0-4.242 0-5.121-.879c-.768-.768-.865-1.946-.877-4.121" opacity="0.5" />
		<path stroke-linejoin="round" d="M15 12H2m0 0l3.5-3M2 12l3.5 3" />
	</g>
</symbol>
<symbol id="search_icon" xmlns="http://www.w3.org/2000/svg" viewBox="0 0 24 24">
	<path fill="none" stroke="currentColor" stroke-linecap="round" stroke-linejoin="round" stroke-width="1.5" d="M19 11.5a7.5 7.5 0 1 1-15 0a7.5 7.5 0 0 1 15 0m-2.107 5.42l3.08 3.08" />
</symbol>
</svg>